<?xml version="1.0"?>
<svg width="81" height="81" xmlns="http://www.w3.org/2000/svg" xmlns:svg="http://www.w3.org/2000/svg">

 <g>
  <title>Layer 1</title>
  <g id="svg_16">
   <path id="svg_17" d="m46.488998,37.568001l-8.039997,0l0,-4.128002c0,-3.296997 -2.683002,-5.979 -5.98,-5.979c-3.297001,0 -5.979,2.683002 -5.979,5.979l0,4.128002l-8.040001,0l0,-4.128002c0,-7.73 6.288998,-14.019999 14.02,-14.019999s14.02,6.289 14.02,14.019999l0,4.128002l-0.001003,0z" fill="#F9A11D"/>
  </g>
  <path id="svg_18" d="m49.731998,37.568001l-34.524998,0c-1.474001,0 -2.68,1.205997 -2.68,2.68l0,25.540001c0,1.473999 1.205999,2.68 2.68,2.68l34.524998,0c1.474003,0 2.68,-1.206001 2.68,-2.68l0,-25.540001c0,-1.474003 -1.205997,-2.68 -2.68,-2.68zm-15.512997,16.769001l0,3.460995c0,0.966003 -0.784,1.749001 -1.749001,1.749001s-1.749001,-0.783997 -1.749001,-1.749001l0,-3.459995c-1.076,-0.611 -1.803001,-1.764 -1.803001,-3.09c0,-1.962002 1.591,-3.552002 3.552002,-3.552002c1.961998,0 3.551998,1.591 3.551998,3.552002c0,1.325001 -0.727001,2.478001 -1.802998,3.089001z" fill="#2C3C69"/>
  <path id="svg_19" d="m11.707001,33.759998l-8.331,0c-1.351001,0 -2.446,-1.094997 -2.446,-2.445999s1.094999,-2.445999 2.446,-2.445999l8.331,0c1.351,0 2.445999,1.095001 2.445999,2.445999s-1.096001,2.445999 -2.445999,2.445999z" fill="#F9A11D"/>
  <path id="svg_20" d="m17.575001,20.655001c-0.546001,0 -1.097,-0.182001 -1.552,-0.557001l-6.59,-5.418999c-1.043001,-0.858002 -1.194,-2.399 -0.335001,-3.443001c0.858,-1.042999 2.399,-1.194 3.443001,-0.336l6.59,5.419001c1.042999,0.858 1.194,2.399 0.334999,3.442999c-0.483,0.589001 -1.184,0.893002 -1.890999,0.893002z" fill="#F9A11D"/>
  <path id="svg_21" d="m32.469002,14.895c-1.351002,0 -2.446003,-1.095001 -2.446003,-2.446001l0,-8.396999c0,-1.351 1.095001,-2.446 2.446003,-2.446s2.445999,1.095 2.445999,2.446l0,8.396999c0,1.351 -1.095001,2.446001 -2.445999,2.446001z" fill="#F9A11D"/>
  <g id="svg_22">
   <g id="svg_23">
    <path id="svg_24" d="m47.362999,20.655001c-0.707001,0 -1.406998,-0.304001 -1.890999,-0.893002c-0.858002,-1.042999 -0.708,-2.584999 0.334999,-3.442999l6.59,-5.419001c1.044003,-0.858 2.585003,-0.706999 3.442997,0.336c0.858002,1.042999 0.708,2.584999 -0.334999,3.443001l-6.589996,5.418999c-0.455002,0.375 -1.005001,0.557001 -1.552002,0.557001z" fill="#F9A11D"/>
   </g>
  </g>
  <path id="svg_25" d="m61.563004,33.759998l-8.410004,0c-1.351002,0 -2.445999,-1.094997 -2.445999,-2.445999s1.094997,-2.445999 2.445999,-2.445999l8.410004,0c1.350998,0 2.445999,1.095001 2.445999,2.445999s-1.095001,2.445999 -2.445999,2.445999z" fill="#F9A11D"/>
 </g>
</svg>